<svg width="1388" height="2256" viewBox="0 0 1388 2256" fill="none" xmlns="http://www.w3.org/2000/svg">
<line y1="1132.46" x2="1388" y2="1132.46" stroke="white" stroke-width="5"/>
<circle cx="693.47" cy="1127.55" r="92.786" stroke="white" stroke-width="5"/>
<mask id="path-3-inside-1_3_490" fill="white">
<path d="M326.09 1963.95H1042.85V2255.1H326.09V1963.95Z"/>
</mask>
<path d="M326.09 1963.95V1958.95H321.09V1963.95H326.09ZM1042.85 1963.95H1047.85V1958.95H1042.85V1963.95ZM326.09 1968.95H1042.85V1958.95H326.09V1968.95ZM1037.85 1963.95V2255.1H1047.85V1963.95H1037.85ZM331.09 2255.1V1963.95H321.09V2255.1H331.09Z" fill="white" mask="url(#path-3-inside-1_3_490)"/>
<mask id="path-5-inside-2_3_490" fill="white">
<path d="M535.719 2134.41H833.223V2255.1H535.719V2134.41Z"/>
</mask>
<path d="M535.719 2134.41V2129.41H530.719V2134.41H535.719ZM833.223 2134.41H838.223V2129.41H833.223V2134.41ZM535.719 2139.41H833.223V2129.41H535.719V2139.41ZM828.223 2134.41V2255.1H838.223V2134.41H828.223ZM540.719 2255.1V2134.41H530.719V2255.1H540.719Z" fill="white" mask="url(#path-5-inside-2_3_490)"/>
<circle cx="684.472" cy="2042.83" r="6.88177" fill="#D9D9D9"/>
<mask id="path-8-inside-3_3_490" fill="white">
<path d="M1042.85 291.152L326.09 291.152V-9.15527e-05L1042.85 -9.15527e-05V291.152Z"/>
</mask>
<path d="M1042.85 291.152V296.152H1047.85V291.152H1042.85ZM326.09 291.152H321.09V296.152H326.09V291.152ZM326.09 -9.15527e-05V-5.00009H321.09V-9.15527e-05H326.09ZM1042.85 -9.15527e-05H1047.85V-5.00009H1042.85V-9.15527e-05ZM1042.85 286.152L326.09 286.152V296.152L1042.85 296.152V286.152ZM331.09 291.152V-9.15527e-05H321.09V291.152H331.09ZM326.09 4.99991L1042.85 4.99991V-5.00009L326.09 -5.00009V4.99991ZM1037.85 -9.15527e-05V291.152H1047.85V-9.15527e-05H1037.85Z" fill="white" mask="url(#path-8-inside-3_3_490)"/>
<mask id="path-10-inside-4_3_490" fill="white">
<path d="M833.223 120.696L535.719 120.696V-6.10352e-05L833.223 -6.10352e-05V120.696Z"/>
</mask>
<path d="M833.223 120.696V125.696H838.223V120.696H833.223ZM535.719 120.696H530.719V125.696H535.719V120.696ZM535.719 -6.10352e-05V-5.00006H530.719V-6.10352e-05H535.719ZM833.223 -6.10352e-05H838.223V-5.00006H833.223V-6.10352e-05ZM833.223 115.696L535.719 115.696V125.696L833.223 125.696V115.696ZM540.719 120.696V-6.10352e-05H530.719V120.696H540.719ZM535.719 4.99994L833.223 4.99994V-5.00006L535.719 -5.00006V4.99994ZM828.223 -6.10352e-05V120.696H838.223V-6.10352e-05H828.223Z" fill="white" mask="url(#path-10-inside-4_3_490)"/>
<circle cx="684.472" cy="212.276" r="6.88177" transform="rotate(-180 684.472 212.276)" fill="#D9D9D9"/>
<path d="M2.5 2.5H1385.5V2252.6H2.5V2.5Z" fill="#2F7532" stroke="white" stroke-width="5"/>
<rect x="6.35205" y="230.804" width="1376.35" height="71.9939" fill="#348838"/>
<rect x="6.35205" y="158.81" width="1376.35" height="71.9939" fill="#2F7532"/>
<rect x="6.35205" y="86.8162" width="1376.35" height="71.9939" fill="#348838"/>
<rect x="6.35205" y="14.8222" width="1376.35" height="71.9939" fill="#2F7532"/>
<rect x="6.35205" y="374.792" width="1376.35" height="71.9939" fill="#348838"/>
<rect x="6.35205" y="302.798" width="1376.35" height="71.9939" fill="#2F7532"/>
<rect x="6.35205" y="518.779" width="1376.35" height="71.9939" fill="#348838"/>
<rect x="6.35205" y="446.786" width="1376.35" height="71.9939" fill="#2F7532"/>
<rect x="6.35205" y="662.767" width="1376.35" height="71.9939" fill="#348838"/>
<rect x="6.35205" y="590.773" width="1376.35" height="71.9939" fill="#2F7532"/>
<rect x="6.35205" y="806.755" width="1376.35" height="71.9939" fill="#348838"/>
<rect x="6.35205" y="734.761" width="1376.35" height="71.9939" fill="#2F7532"/>
<rect x="6.35205" y="950.743" width="1376.35" height="71.9939" fill="#348838"/>
<rect x="6.35205" y="878.749" width="1376.35" height="71.9939" fill="#2F7532"/>
<rect x="6.35205" y="1094.73" width="1376.35" height="71.9939" fill="#348838"/>
<rect x="6.35205" y="1022.74" width="1376.35" height="71.9939" fill="#2F7532"/>
<rect x="6.35205" y="1238.72" width="1376.35" height="71.9939" fill="#348838"/>
<rect x="6.35205" y="1166.72" width="1376.35" height="71.9939" fill="#2F7532"/>
<rect x="6.35205" y="1382.71" width="1376.35" height="71.9939" fill="#348838"/>
<rect x="6.35205" y="1310.71" width="1376.35" height="71.9939" fill="#2F7532"/>
<rect x="6.35205" y="1526.69" width="1376.35" height="71.9939" fill="#348838"/>
<rect x="6.35205" y="1454.7" width="1376.35" height="71.9939" fill="#2F7532"/>
<rect x="6.35205" y="1670.68" width="1376.35" height="71.9939" fill="#348838"/>
<rect x="6.35205" y="1598.69" width="1376.35" height="71.9939" fill="#2F7532"/>
<rect x="6.35205" y="1814.67" width="1376.35" height="71.9939" fill="#348838"/>
<rect x="6.35205" y="1742.68" width="1376.35" height="71.9939" fill="#2F7532"/>
<rect x="6.35205" y="1958.66" width="1376.35" height="71.9939" fill="#348838"/>
<rect x="6.35205" y="1886.66" width="1376.35" height="71.9939" fill="#2F7532"/>
<rect x="6.35205" y="2102.64" width="1376.35" height="71.9939" fill="#348838"/>
<rect x="6.35205" y="2030.65" width="1376.35" height="71.9939" fill="#2F7532"/>
<rect x="6.35205" y="2174.64" width="1376.35" height="71.9939" fill="#2F7532"/>
<line y1="1132.46" x2="1388" y2="1132.46" stroke="white" stroke-width="5"/>
<circle cx="693.47" cy="1127.55" r="92.786" stroke="white" stroke-width="5"/>
<mask id="path-47-inside-5_3_490" fill="white">
<path d="M326.09 1963.95H1042.85V2255.1H326.09V1963.95Z"/>
</mask>
<path d="M326.09 1963.95V1958.95H321.09V1963.95H326.09ZM1042.85 1963.95H1047.85V1958.95H1042.85V1963.95ZM326.09 1968.95H1042.85V1958.95H326.09V1968.95ZM1037.85 1963.95V2255.1H1047.85V1963.95H1037.85ZM331.09 2255.1V1963.95H321.09V2255.1H331.09Z" fill="white" mask="url(#path-47-inside-5_3_490)"/>
<mask id="path-49-inside-6_3_490" fill="white">
<path d="M535.719 2134.41H833.223V2255.1H535.719V2134.41Z"/>
</mask>
<path d="M535.719 2134.41V2129.41H530.719V2134.41H535.719ZM833.223 2134.41H838.223V2129.41H833.223V2134.41ZM535.719 2139.41H833.223V2129.41H535.719V2139.41ZM828.223 2134.41V2255.1H838.223V2134.41H828.223ZM540.719 2255.1V2134.41H530.719V2255.1H540.719Z" fill="white" mask="url(#path-49-inside-6_3_490)"/>
<circle cx="684.472" cy="2042.83" r="6.88177" fill="#D9D9D9"/>
<mask id="path-52-inside-7_3_490" fill="white">
<path d="M1042.85 291.152L326.09 291.152V-9.15527e-05L1042.85 -9.15527e-05V291.152Z"/>
</mask>
<path d="M1042.85 291.152V296.152H1047.85V291.152H1042.85ZM326.09 291.152H321.09V296.152H326.09V291.152ZM326.09 -9.15527e-05V-5.00009H321.09V-9.15527e-05H326.09ZM1042.85 -9.15527e-05H1047.85V-5.00009H1042.85V-9.15527e-05ZM1042.85 286.152L326.09 286.152V296.152L1042.85 296.152V286.152ZM331.09 291.152V-9.15527e-05H321.09V291.152H331.09ZM326.09 4.99991L1042.85 4.99991V-5.00009L326.09 -5.00009V4.99991ZM1037.85 -9.15527e-05V291.152H1047.85V-9.15527e-05H1037.85Z" fill="white" mask="url(#path-52-inside-7_3_490)"/>
<mask id="path-54-inside-8_3_490" fill="white">
<path d="M833.223 120.696L535.719 120.696V-6.10352e-05L833.223 -6.10352e-05V120.696Z"/>
</mask>
<path d="M833.223 120.696V125.696H838.223V120.696H833.223ZM535.719 120.696H530.719V125.696H535.719V120.696ZM535.719 -6.10352e-05V-5.00006H530.719V-6.10352e-05H535.719ZM833.223 -6.10352e-05H838.223V-5.00006H833.223V-6.10352e-05ZM833.223 115.696L535.719 115.696V125.696L833.223 125.696V115.696ZM540.719 120.696V-6.10352e-05H530.719V120.696H540.719ZM535.719 4.99994L833.223 4.99994V-5.00006L535.719 -5.00006V4.99994ZM828.223 -6.10352e-05V120.696H838.223V-6.10352e-05H828.223Z" fill="white" mask="url(#path-54-inside-8_3_490)"/>
<circle cx="684.472" cy="212.276" r="6.88177" transform="rotate(-180 684.472 212.276)" fill="#D9D9D9"/>
<path d="M1384.82 27.5272C1368.72 28.2511 1358.69 13.6446 1359.41 3.17631" stroke="white" stroke-width="5"/>
<path d="M28.9985 5.29362C28.761 21.411 13.5822 30.5579 3.17598 29.2062" stroke="white" stroke-width="5"/>
<path d="M1360.55 2251.75C1359.86 2235.65 1374.49 2225.64 1384.96 2226.39" stroke="white" stroke-width="5"/>
<path d="M4.23435 2227.12C20.3282 2228.02 28.8404 2243.57 27.0602 2253.91" stroke="white" stroke-width="5"/>
<circle cx="693" cy="1132" r="11" fill="white"/>
</svg>
